<svg xmlns="http://www.w3.org/2000/svg" xmlns:xlink="http://www.w3.org/1999/xlink" viewBox="0 0 279.67 279.67"><defs><style>.cls-1{fill:none;}.cls-2{clip-path:url(#clip-path);}.cls-3{fill:#fff;}.cls-4{fill:#231f20;}</style><clipPath id="clip-path"><rect class="cls-1" x="0.03" y="0.01" width="279.63" height="279.66"/></clipPath></defs><g id="Layer_2" data-name="Layer 2"><g id="Layer_1-2" data-name="Layer 1"><g id="German_Shepherd_dog_-_isolated_outlined_vector_illustration" data-name="German Shepherd dog - isolated outlined vector illustration"><g class="cls-2"><polygon class="cls-3" points="279.67 279.67 0 279.67 0 0 279.67 0 279.67 279.67 279.67 279.67"/></g><path class="cls-4" d="M152,168.88c-1.48-5.16-7.93-12.18-13-16,8,2.51,14.5,10.47,13,16Z"/><path class="cls-4" d="M130.88,152.9c-7.88,6.14-12.4,15.59-12.75,16.31-.75-5.9,3.41-11.69,12.75-16.31Z"/><path class="cls-4" d="M86,152.36c.18-.38.2-.4,0,0Z"/><path class="cls-4" d="M89,136.18c0-.1,0,.06,0,0Z"/><path class="cls-4" d="M136.8,123.74h0a12.79,12.79,0,0,1-1.67,4.63l-.18.28c0-.12,0-.24,0-.36-.11-1.77-.15-3.39-.23-5h0l-.09-1.61a8.93,8.93,0,0,1-.51,2.41c0,.1-.07.2-.1.29,0-.11-.07-.22-.1-.33-.45-1.65-.87-3.14-1.37-4.58h0c-.22-.62-.45-1.24-.69-1.85a13.14,13.14,0,0,1,.73,3.24l0,.34c-.07-.08-.14-.15-.2-.23-1.07-1.25-2-2.4-3-3.41h0c-.71-.74-1.43-1.41-2.17-2a11.68,11.68,0,0,1,2.29,3.87c.05.13.1.26.14.39l-.27-.21a19,19,0,0,0-4.45-2.61h0c-.32-.13-.65-.24-1-.34a15.53,15.53,0,0,0-3.56-.61,39,39,0,0,0-4.59.07h0a36.88,36.88,0,0,1-4.44.08h-.2A1.29,1.29,0,0,0,111,116l.26,0a32.54,32.54,0,0,1,4.58-2.27h0a13.71,13.71,0,0,1,5.08-1.06,9,9,0,0,1,2.06.27,8.83,8.83,0,0,1,1.66.63c-.49-.36-1-.7-1.48-1h0a33.28,33.28,0,0,1-3.21-2.35l-.21-.19.23-.07a7.82,7.82,0,0,1,4.09-.13h0a9.08,9.08,0,0,1,3.79,2A13,13,0,0,1,131,115.6h0c.07.12.13.25.19.38-.09-.22-.19-.44-.29-.65a38.81,38.81,0,0,0-2.1-3.86h0a43.17,43.17,0,0,0-2.58-3.67c-.06-.09-.13-.17-.19-.25h.25a3.65,3.65,0,0,1,1.23.15,6.47,6.47,0,0,1,2.69,1.68h0a14.56,14.56,0,0,1,2.89,4.34,19.67,19.67,0,0,1,1.26,3.87c-.12-1.31-.27-2.62-.47-3.95a33.11,33.11,0,0,0-1.15-5.13c0-.12-.07-.24-.11-.36l.24.2a8,8,0,0,1,1.73,2.24h0a17.93,17.93,0,0,1,1.2,2.74h0a24.14,24.14,0,0,1,1.19,5.44,20.37,20.37,0,0,1,.1,2.33,16.76,16.76,0,0,1-.24,2.66Z"/><path class="cls-4" d="M158.47,117.19h0a36,36,0,0,0-4.54-.39,15.51,15.51,0,0,0-3.58.38c-.33.08-.65.17-1,.28h0a17.75,17.75,0,0,0-4.55,2.37l-.28.19.15-.38a11.3,11.3,0,0,1,2.15-3.43c-.74.58-1.47,1.2-2.19,1.89h0c-1,1-2,2.06-3.1,3.25l-.21.23c0-.11,0-.22,0-.33a12.77,12.77,0,0,1,.38-1.88l-.09.24h0c-.55,1.41-1,2.88-1.52,4.52,0,.11-.07.22-.1.33,0-.1-.07-.2-.1-.3a9.48,9.48,0,0,1-.45-2.92c-.07.7-.13,1.4-.18,2.11h0c-.13,1.62-.22,3.24-.39,5l0,.36c-.05-.1-.11-.19-.17-.29a12.65,12.65,0,0,1-1.53-4.67h0a18.23,18.23,0,0,1-.16-2.67,20.79,20.79,0,0,1,.17-2.33,23.81,23.81,0,0,1,1.36-5.39h0a17.46,17.46,0,0,1,1.29-2.69l.07.08-.07-.08a7.6,7.6,0,0,1,1.81-2.16l.25-.18c0,.12-.09.23-.13.35a33.59,33.59,0,0,0-1.32,5.06c-.28,1.51-.48,3-.66,4.48a18.65,18.65,0,0,1,1.52-4.38,13.74,13.74,0,0,1,3-4.17h0a6.17,6.17,0,0,1,2.76-1.5,4,4,0,0,1,1.24-.06l.25,0-.2.24a36.62,36.62,0,0,0-2.71,3.46h0a33.89,33.89,0,0,0-2.23,3.72l0,0a12.14,12.14,0,0,1,2.91-3.22,8.69,8.69,0,0,1,3.85-1.7h0a8,8,0,0,1,4.07.41l.23.09-.22.16a31.46,31.46,0,0,1-3.27,2.07h0l-.88.53a6.48,6.48,0,0,1,1.29-.35,8.31,8.31,0,0,1,2-.12,14,14,0,0,1,5,1.43h0a37.15,37.15,0,0,1,4.42,2.54l.3.2h-.4a43,43,0,0,1-4.35-.44Z"/><path class="cls-4" d="M120.41,144.78s.11-6.69-2.48-10.12-5.06-3.8-8.33-2.95a11.22,11.22,0,0,0-5.17,3.08c.27-.13,3.49-5.88,8.25-5.93,0,0-1.4-.42-3.19-1.16,0,0,3-1.88,5.33-1a13.07,13.07,0,0,0-4.41-2.65s6-.76,7.41,2.87c0,0-.8-4.36-1.4-5.23a6.27,6.27,0,0,1,5,5.48,8.48,8.48,0,0,0,1.28-5,15.32,15.32,0,0,1,3.44,10.49,9.27,9.27,0,0,0,1.69-3.25s4.21,7.91-2.15,12.95c0,0-7.14,5.06-12,18a20.78,20.78,0,0,1,1.61-9.58c2.72-5.73-4-4.47-6.69-5.27-4.52-1.33-5.64-7.8-5.64-7.8,8.38,10.79,11.71,1.14,17.42,7Z"/><path class="cls-4" d="M147.51,143.52c-6.5-4.86-2.51-12.88-2.51-12.88a9.1,9.1,0,0,0,1.78,3.2,15.34,15.34,0,0,1,3.14-10.58,8.47,8.47,0,0,0,1.42,4.91c.31-4.69,4.89-5.62,4.89-5.62-.58.89-1.25,5.26-1.25,5.27,1.34-3.67,7.32-3,7.32-3.08a13.36,13.36,0,0,0-4.34,2.77c2.27-1,5.37.86,5.36.82-1.77.79-3.16,1.26-3.16,1.26,4.76-.09,8.15,5.57,8.42,5.7a10.83,10.83,0,0,0-5.26-2.94c-3.34-.48-5.69-.4-8.24,3.18s-2.2,10.19-2.2,10.19c4.46-6.29,10.18,2.61,16.66-7.27,0,0-.38,6.28-4.86,7.73-2.7.87-9.43-.2-6.54,5.45a20.77,20.77,0,0,1,1.87,9.53c-5.22-12.78-12.5-17.64-12.5-17.64Z"/><path class="cls-4" d="M77.64,202.31s6.78-8.74,11-12.74a32.15,32.15,0,0,0-10.08,4.19c3.3-4.41,5.87-9.13,9.47-11.25,0,0-3.5-.32-8.85,2.39,3.74-3.4,9.22-10.85,10.88-17h0c3.65-9.94,4.3-22.43,10.72-28.44-5,2.68-7.59,7.85-9.53,12.95-1.72,6.37-6.06,13.68-9.47,15.56a.69.69,0,0,1,.05-.13c2.29-6.9,7.28-14.43,7.28-14.43s-3-.37-3.18-1.08c3-11.09,7.72-15,9.79-17.4a1.48,1.48,0,0,0,.38-.5C96,133.9,89,135.57,83.53,140h0c1.51-2.25,7.57-7.77,7.57-7.77l-9.56,1.18-.45-.23c.37-.26.74-.52,1.1-.79l10.33-4.61-8-1.26a34.7,34.7,0,0,0,8.06-2.07c11.5-3.5,15-10,15-10L103.91,113l9-.4L107,109.25l6.09,0-4.34-3.79,6.36.24-3.94-3.24,7.3.85-3.11-5,7.33,3-2-3.89,6.33,4.26-.19-2.57a10,10,0,0,0,6.42,3.78c2.07.66,4.6,3.76,4.6,3.76a9.54,9.54,0,0,1,6.39-3.38l.16,0a16.31,16.31,0,0,0,3.79-.93,9.09,9.09,0,0,0,3.65-2.67l-.26,2.41,6.61-4.47-2.15,5,7.2-3.4-3.52,4.14,7.6-.7-4.19,3.39,6.76.11-5.25,3.23,7.42,2-5,1.89,8.34,3.1-4.48,1s10.43,8.55,20.93,9.81l-5.68,2.52L197,131.3l-9.68,3.34c-.43.58,9.91,2.35,9.48,3l-8.29,0,6.8,5.75a61.44,61.44,0,0,0-9.46-4.62,94.46,94.46,0,0,0-9.41-1.86l1.27.82c3.9,2.61,13.92,9,14.75,16a37.8,37.8,0,0,1-4.17-1.78l7.41,10.74v0L189.56,160l5,6.71c-4-1.79-7.15-5.82-9.65-10.28-.64-1.15-1.24-2.33-1.79-3.52-2.46-5.34-3.2-11.23-12.42-14.59,8.12,4.92,7.81,11,10,16.88.33,1,.67,2.62,1.06,3.63a75.52,75.52,0,0,0,5.07,10.43h0c4.75,7.46,9.77,12.92,12.24,14.94-5.69-2.55-9.35-2.14-9.35-2.14,3.83,2,6.66,6.68,10.25,11a35,35,0,0,0-10.7-3.9c4.58,3.88,11.94,12.43,11.94,12.43a67.81,67.81,0,0,0-20.75-6.46c8.81,3.79,16.22,12.31,16.22,12.31-13.46-8.33-24.74-5.66-24.74-5.66a69.59,69.59,0,0,1,20.89,11.6s-9.5,1.64-23.07-2c0,0,5.88,5.94,18.25,9.25-4.92-.27-18.83-2.54-26.59-6.66,4.2-3.06,5.71-8.92,6.28-15.29,6.67-3.45,16.65-12.9,15.32-22.09-1.83,6.22-9.46,15-15,16.41l.06-2.54.79-.39a21.59,21.59,0,0,0,3.12-1.85,9.56,9.56,0,0,0,1.54-1.41,7.53,7.53,0,0,0,.7-.93l.3-.53.05-.11.08-.15.12-.28a7.24,7.24,0,0,0,.36-1.17,7.46,7.46,0,0,0,.13-1.25,6.72,6.72,0,0,0-.42-2.3,8.93,8.93,0,0,0-.91-1.83,15.94,15.94,0,0,0-1.07-1.47c-.72-.91-1.45-1.7-2-2.54a5.16,5.16,0,0,1-.67-1.35,4.23,4.23,0,0,1-.12-1.69,3.4,3.4,0,0,0-.9,1.72,5.19,5.19,0,0,0,0,2,14.53,14.53,0,0,0,1.26,3.48,16.69,16.69,0,0,1,1.11,2.83,3.82,3.82,0,0,1,.1,1.13,3.16,3.16,0,0,1-.24,1l-.05.13,0,0h0v0l0,.05c0,.08-.08.16-.12.24a4.36,4.36,0,0,1-.34.49,8.72,8.72,0,0,1-.95,1c-.52.49-1.12,1-1.74,1.49.07-4.07.22-7.72,1-10.28v0c-1.41.62-2.67,3-3.74,4-.56-11.66-7-17-7-17,4.66,7.56,9.21,29.43-3,32.52-7.59,1.91-14.39-3.48-20-5.44-4.09,2.13-8,6.06-13.62,6.3-18.07.8-8.85-26.66-5-35.17a34.54,34.54,0,0,0-7.62,17,33.4,33.4,0,0,0-1.78-3.71,69.12,69.12,0,0,1,1.75,13.88c-.55-.32-1.07-.61-1.53-.89a6.22,6.22,0,0,1-1.21-1,4.41,4.41,0,0,1-.78-1.12,5.58,5.58,0,0,1-.48-1.37,8.53,8.53,0,0,1,0-3.22c.09-.59.24-1.21.38-1.85l.24-1,.24-1a21.73,21.73,0,0,0,.63-4.3,9.35,9.35,0,0,0-.21-2.24,5.57,5.57,0,0,0-.86-2,9.5,9.5,0,0,1-.16,2,12.45,12.45,0,0,1-.53,1.86c-.44,1.2-1,2.36-1.57,3.59l-.43.94c-.13.31-.27.64-.4,1a17.82,17.82,0,0,0-.7,2.1,12,12,0,0,0-.4,2.37,9.41,9.41,0,0,0,.18,2.58,8.66,8.66,0,0,0,.92,2.44,7.14,7.14,0,0,0,1.68,2,8.23,8.23,0,0,0,2,1.21c.67.28,1.31.48,1.9.67l.89.28.22.08c0,.55,0,1.11,0,1.65-5.54-1-13.41-10.49-15.11-17-1.66,9.41,8.65,19.46,15.19,22.85.11,4.29.42,7.86,1.63,10.16a18.23,18.23,0,0,0,2,3.14c-2.21,3.2-12,6.8-18.17,6.61,8.91-3.61,13.09-8.29,13.09-8.29-12.82,4-21.91,2.6-21.91,2.6a65.7,65.7,0,0,1,19.59-12.16S94.7,199.36,82.11,208c0,0,6.83-8.71,15.12-12.74a62.46,62.46,0,0,0-19.59,7Zm35.83,5.22a20.73,20.73,0,0,1-.54-8.16,4.7,4.7,0,0,0,.17-1.05c1.49,4.63.83,10.23,5.37,12.85l0,.07a4.48,4.48,0,0,1-4.54-2.72l-.41-1Zm9.81-1.23c-.22,1-1.35,4.36-2.61,3.47a.08.08,0,0,1-.08,0c-1.26-.73-1.82-2.57-2.09-4.07a10.89,10.89,0,0,1,.08-4.92c0-.06.06-.11.12-.1a3.58,3.58,0,0,1,1.85,1.05c.58.51,1.2,1,1.76,1.5a3.27,3.27,0,0,1,1,3.08Zm.14,6.37c2.16-1.89,1.66-8,.42-11.82A16.91,16.91,0,0,1,135.76,203a132.43,132.43,0,0,1-.45,15.14c.92-3.73,2.65-9.67,2.87-15.43a10,10,0,0,1,5.06-1.44,31.45,31.45,0,0,1,7.49.65c-2.62,8.55,4.72,12.82,5.23,20,.77,10.9-3.43,16.86-10,20.63a8.19,8.19,0,0,1-4.16,1,7.36,7.36,0,0,1-5.31-2.12,7.53,7.53,0,0,1-4.92,1.79c-9.88-.15-19.48-20.54-8.11-30.53Zm31.41-4.08a2.13,2.13,0,0,1-2.1-1.22c-.35-.52-1.26-1.28-1.06-2,0-.1,0-.17,0-.1.53-1.23,1.41-2.26,2-3.46a10.12,10.12,0,0,1,.78-1.45c.19-.26.45-.65.8-.71.67-.11.91.76,1,1.28a17.74,17.74,0,0,1,.35,3.71c.05,1.46,0,3.68-1.84,4Zm2.15,2.07c6.31-1.53,5.76-11.84,6.43-18,.06.2.13.41.19.62a2.56,2.56,0,0,0,.05.62l.08-.13c1.68,6.71.22,18-6.75,16.93ZM194.92,91.27c0,2.21-.07,4.45-.08,6.67-.13-.41-.29-.83-.46-1.24-.19,1.12-.33,2.2-.51,3.26s-.37,2.11-.61,3.14a40.22,40.22,0,0,1-1.8,6c-.4,1-.85,2-1.35,3a8.62,8.62,0,0,0,.45-3.74c-1,1.15-1.89,2.25-2.77,3.31l-.24.28a5.72,5.72,0,0,0,.08-1.49c-1.08.92-2,1.79-2.87,2.61l-.71.64c.33-.43.65-.87,1-1.36a6.32,6.32,0,0,0-2,.37c-.61.2-1.18.44-1.7.65l-.75.28-.09,0,0,0h0l-.08.05-.21.09-.39.17-.26.12a9.5,9.5,0,0,0,2.56-2,5.77,5.77,0,0,0,1.11-1.75,3.68,3.68,0,0,0,.24-2,13.16,13.16,0,0,1-3,2.12c-1,.54-2.07,1-3.17,1.5l-.54.24h0a6,6,0,0,0,1.85-1.75,3.72,3.72,0,0,0,.62-2.92c-.93.58-1.65,1-2.38,1.43s-1.31.7-2,1l-.43-.51c.62-.62,1.2-1.22,1.81-1.84s1.26-1.23,2.06-2a5.54,5.54,0,0,0-3.42.21,7.54,7.54,0,0,0-1.57.82l.13-.2c.51-.76,1-1.51,1.51-2.26a17.09,17.09,0,0,1,1.92-2.37,7.3,7.3,0,0,0-2.4.2,8,8,0,0,0-1.72.63l1.17-1.8a18.79,18.79,0,0,0,1.67-3,12,12,0,0,0-4.28,1.66l-.24.15.51-1.17c.59-1.32,1.17-2.62,1.85-3.91a45.9,45.9,0,0,1,2.37-4,12.37,12.37,0,0,0-5.17,2.87,12.21,12.21,0,0,0-2.27,2.85l1.17-3.25c.51-1.37,1-2.71,1.66-4.07s1.3-2.73,1.92-4.24a13.85,13.85,0,0,0-4.78,3.24,1.29,1.29,0,0,1-.16.17c.59-1.35,1.19-2.68,1.89-4a35.09,35.09,0,0,1,2.7-4.43,12.9,12.9,0,0,0-3.11,1.44,13.82,13.82,0,0,0-2.41,1.94,15.38,15.38,0,0,0-1.59,1.88c.84-2.48,1.69-5,2.62-7.38A86.77,86.77,0,0,1,172.2,69a76.44,76.44,0,0,1,5.24-8.6,28.67,28.67,0,0,0-8.26,7.39,34.54,34.54,0,0,0-3.41,5.47l-.09,0c.62-1.44,1.22-2.88,1.81-4.3,3.84-9.25,7.47-18,15.91-23.7a1.44,1.44,0,0,1,1-.37c1.18.12,3.48,2.09,5.28,5.18,2.62,4.48,3.26,10.25,4,16.93.2,1.77.4,3.61.65,5.47.78,5.9.67,12.48.56,18.84ZM114.27,70.73c-.12,0-.09-.08,0-.08a48.3,48.3,0,0,0-3.16-5.17,27.6,27.6,0,0,0-7.23-7.56,79.73,79.73,0,0,1,4.27,8.87,95.11,95.11,0,0,1,3.11,9.07c.73,2.47,1.38,5,2,7.5a14.32,14.32,0,0,0-1.32-2,12.34,12.34,0,0,0-2-2.06,10.54,10.54,0,0,0-2.66-1.61,38.54,38.54,0,0,1,2.2,4.56c.56,1.36,1,2.73,1.51,4.11l-.13-.18a12.68,12.68,0,0,0-4.06-3.5c.49,1.55,1.06,2.94,1.53,4.34s.91,2.77,1.31,4.16l.91,3.31a12.57,12.57,0,0,0-1.88-3,10.8,10.8,0,0,0-4.41-3.14c.74,1.44,1.39,2.75,1.93,4.08s1,2.65,1.48,4c.13.39.27.79.4,1.19l-.2-.17a9.88,9.88,0,0,0-3.67-1.88,20.89,20.89,0,0,0,1.35,3l1,1.85a7.53,7.53,0,0,0-1.48-.72,5.53,5.53,0,0,0-2.08-.32,16.54,16.54,0,0,1,1.59,2.47c.43.78.82,1.55,1.24,2.34a2.12,2.12,0,0,0,.11.21,6.15,6.15,0,0,0-1.35-.91,4.3,4.3,0,0,0-3-.4c.67.84,1.22,1.48,1.73,2.14l1.18,1.5a27.76,27.76,0,0,1-3.77-1.8,4.26,4.26,0,0,0,.45,3,6,6,0,0,0,1.55,1.86h0l-.46-.26c-.94-.55-1.85-1.08-2.71-1.68A12.37,12.37,0,0,1,97,105.65a4.4,4.4,0,0,0,.15,2,6.23,6.23,0,0,0,.91,1.8,8.6,8.6,0,0,0,2.17,2.09l-.23-.14-.33-.19-.18-.1-.07,0h0l0,0-.08,0c-.21-.09-.42-.2-.64-.32-.45-.24-.94-.51-1.46-.74a5.19,5.19,0,0,0-1.7-.48c.28.52.55,1,.82,1.42l-.6-.68c-.76-.86-1.5-1.78-2.41-2.76a6.74,6.74,0,0,0,0,1.49l-.2-.29c-.73-1.11-1.43-2.26-2.3-3.46a9.89,9.89,0,0,0,.26,3.76c-.4-1-.75-2.05-1.07-3.1a48.9,48.9,0,0,1-1.37-6.09c-.17-1-.3-2.09-.42-3.16s-.21-2.16-.33-3.28a18.13,18.13,0,0,0-1.32,6.58c0,.75-.07,1.52-.11,2.3a152.3,152.3,0,0,1,1.28-33.25c1.53-10,3.48-18.06,8-24.47a2.32,2.32,0,0,1,1.35-.52c2.39-.13,5.91,2.94,7.8,5.87,2.72,4.19,5.3,10.28,7.69,16.25.55,1.37,1.11,2.93,1.7,4.59.08,0,.22,0,0,.08ZM78.59,207c-1.93,2.43-6.92,7.62-6.86,12.32,1.74-.86,5.6-4.91,8-5.18-.75,1.31-1.69,5.07-2.31,6.87,2.54-.63,6.27-2.09,9.74-2.55-3.52,2.17-4.87,6.09-5.67,7.78,16.24-4.35,24.67,2.09,24.67,2.09-3.13.15-5.67,3.68-5.67,3.68s12.91,2.7,17.66,5.3c3.28,5.74,8.3,9.43,13.36,9.5a10.81,10.81,0,0,0,4.79-1,11.68,11.68,0,0,0,5.45,1.38,11.93,11.93,0,0,0,6-1.48A23.52,23.52,0,0,0,156.1,238c6.75-3.78,17.19-6.41,23.73-7.05-2.14-2.45-6.36-2.92-6.36-2.92a6.7,6.7,0,0,1,.6-.45c6.37-2.16,16-2.21,16.78-2.21,2.32,0,4.71.11,7.07.28-.88-1.62-2.39-5.6-6.21-7.71,3.66.37,7.61,1.72,10.29,2.28-.7-1.78-1.79-5.51-2.62-6.8,2.49.2,6.65,4.14,8.5,4.95-.07-4.69-5.44-9.75-7.53-12.12,4.07.55,9.2,4.79,11.58,7-.71-3.77-5.57-10.48-7-13.22.88.39,4.1,3.14,5,3.51.26-5.35-5.74-11.38-7.32-14.59,1.26.22,4.95,3,6.37,3-.39-4.2-9.16-12.2-11.36-18.34.13-.09.2-.18.16-.28.78.3,5.83,2.9,6.56,3.25-1-5.06-2.23-5.6-3.85-10a1.8,1.8,0,0,1,.5-.05,15.71,15.71,0,0,1,2,.55c-1.34-1.61-2-3.85-2.78-6a11.15,11.15,0,0,1,3.89.86c-.23-1.62-5.82-5-4.88-5a34,34,0,0,1,4.71,1.42c-.67-3.55-5.22-5.63-8.15-7,.46,0,3.28.59,3.74.6a4.51,4.51,0,0,0,2.79-.54,30.27,30.27,0,0,1-5.4-3.57c1.34-1.62,4.66-1.31,6.75-2.16-1.09-.45-2.86-.25-3.55-1.09.88-1.63,2.17-2.82,3-4.56l-.36,0c-.63,0-1.18.28-1.61.28l-.22,0c2.19-3.59,4.16-4.91,7.68-7.12-2-.06-4-2.49-5.76-2.52h-.16c1.3-1.31,3.3-1.89,4.42-3.38-1.24-.53-2.79-.77-3.77-1.56a9.49,9.49,0,0,0,2.32-1.46c-.42-.69-1.41-.82-2-1.29.25-2.49,2.72-5.38,2.66-8.13,0-1.45-1.27-3.18-1.66-4.74-3.05-12.32-2-27.84-4.78-41-1.94-9.15-2.78-17.84-7.22-24.38-1.94-2.87-5.65-7-9.64-7a6.23,6.23,0,0,0-4.2,1.62C164,51.64,164.89,71.71,156,85.92c-6.74.38-4.83,10-9.62,11.93-2.77,1.11-8,.15-8.79,3.24-2.83-4.1-6.34-1.46-7.57-6.5-1.78-7.32-5-7.84-5.83-7.85H124c-2.84-5.25-4.89-14.92-7-21.34-2.09-6.24-4.54-13.15-7.43-18.17-2.18-3.79-7-9-12.07-9.05a7.75,7.75,0,0,0-4.85,1.65c-6,6.89-9.11,15.56-11.8,27.21a157.55,157.55,0,0,0-3.93,38.37h-.1c-.39,0-.52.26-.71.45a19,19,0,0,0,.4,4.15c-.55.68-1.83.61-2.32,1.35.52,1.27,1.95,1.65,2.6,2.8-.9.87-2.1,1.41-3,2.25.27.94,1.09,1.36,1.81,1.87-1.13.59-2.44,1-3.59,1.56,1.17,2,3.52,2.77,5.58,3.88-.64,1.22-2.62,1.66-3,2.72,1.34.92,3.57,1,4.8,2-2.92,2.2-6.85,4-8.28,7.35h.15a17.54,17.54,0,0,1,8.11,1.85c-.73,1.35-2.06,2.08-2.59,3.64.94,1.17,3.08,1.17,3.76,2.59-.21.76-.78,1.14-.73,2.18,1.24.31,2.63.47,3.32,1.31-.94,1.69-1.6,3.65-2.84,5a2.09,2.09,0,0,1,1.24,2.21c0,7.33-5.29,11.51-6.72,17.22h.13c.59,0,4.2,2,5.09,2.32a37,37,0,0,0-6.34,6.76,11.61,11.61,0,0,0,4.11-.93c-3.27,4.71-7.5,9.38-7.73,13,1.36-.09,4.8-2.94,6-3.2-1.41,3.26-7,9.44-6.58,14.79.85-.39,3.84-3.23,4.66-3.65-1.24,2.78-5.69,9.62-6.27,13.41,2.21-2.24,7-6.61,10.85-7.27Z"/><path class="cls-4" d="M120.27,183a1,1,0,0,1,0,2,1,1,0,0,1,0-2Z"/><path class="cls-4" d="M115.05,185.92a1,1,0,0,1,0-2,1,1,0,0,1,0,2Z"/><path class="cls-4" d="M123.57,186.36a1,1,0,0,1,0,2,1,1,0,0,1,0-2Z"/><path class="cls-4" d="M119.05,187.75a1,1,0,0,1,0,2,1,1,0,0,1,0-2Z"/><path class="cls-4" d="M114.25,191.29a1,1,0,0,1,0-2,1,1,0,0,1,0,2Z"/><path class="cls-4" d="M120,192.8a1,1,0,0,1,0,2,1,1,0,0,1,0-2Z"/><path class="cls-4" d="M124.48,190.84a1,1,0,0,1,0,2,1,1,0,0,1,0-2Z"/><path class="cls-4" d="M128.5,189.07a1,1,0,0,1,0,2,1,1,0,0,1,0-2Z"/><path class="cls-4" d="M152,182.93a1,1,0,0,1,0,2,1,1,0,0,1,0-2Z"/><path class="cls-4" d="M157.18,184a1,1,0,0,1,0,2,1,1,0,0,1,0-2Z"/><path class="cls-4" d="M148.62,186.23a1,1,0,0,1,0,2,1,1,0,0,1,0-2Z"/><path class="cls-4" d="M153.09,187.77a1,1,0,0,1,0,2,1,1,0,0,1,0-2Z"/><path class="cls-4" d="M157.81,189.42a1,1,0,0,1,0,2,1,1,0,0,1,0-2Z"/><path class="cls-4" d="M152,192.78a1,1,0,0,1,0,2,1,1,0,0,1,0-2Z"/><path class="cls-4" d="M147.57,190.68a1,1,0,0,1,0,2,1,1,0,0,1,0-2Z"/><path class="cls-4" d="M143.61,188.8a1,1,0,0,1,0,2,1,1,0,0,1,0-2Z"/><path class="cls-4" d="M121.5,171.71a3.64,3.64,0,0,1,1-2.07c2.41-2.29,7.12-2.49,13-2.52,5.9.21,10.61.56,12.95,2.92a3.59,3.59,0,0,1,.95,2.1c-2.73-2.24-7.74-2.6-13.93-2.82-6.2,0-11.22.23-14,2.39Zm0,8.09c1.9,5,7.88,7,13,9.28l.86-14.52.86,14.36c5.09-2.07,10.85-3.86,12.86-8.7-2.31,2-10.74,3.16-11-2.13-.16-3.5,5.4-6.09,7.2-1.75.54,1.29-1.18,1.27-.93,2.37.4,1.78,4.79.93,6.12-1.41,1.57-2.78,1.68-6.45-.29-8.53-3-3.16-8.7-4.29-14.69-4.51-6,0-11.75,1-14.82,4.05-2,2-2,5.7-.54,8.53,1.25,2.38,5.61,3.36,6.07,1.59.28-1.09-1.11-1-.86-2.4.67-3.72,6.76-4.2,7,1.56,0,5.29-8.6,4.31-10.84,2.21Z"/><path class="cls-4" d="M105.43,137a7,7,0,0,1,1-1.09,5.25,5.25,0,0,0-.27,1.59q0,.33,0,.63a9.54,9.54,0,0,1-.6-.84l-.17-.26,0,0Zm2.49-1.08c.08-.86,2.1-2.24,4.4-2s4,2,3.92,2.83-1.68-.91-4-1.14-4.43,1.19-4.34.32Zm8.55,4.43a5.41,5.41,0,0,0,.74-2.68v-.27a11.81,11.81,0,0,1,.4,1.59,6,6,0,0,1,.07,1.53,4.77,4.77,0,0,0-1.16-.17Zm-12.17-4.12a1.1,1.1,0,0,0,0,1.55c0,.07.1.15.15.24a10.84,10.84,0,0,0,.94,1.28,12.54,12.54,0,0,0,2.74,2.4,5.39,5.39,0,0,0,3,.84,11.81,11.81,0,0,0,3-.4l.09,0a10,10,0,0,1,2.36-.39,2.36,2.36,0,0,1,1.78.72.4.4,0,0,0,.29.12.24.24,0,0,0,.16,0,.41.41,0,0,0,.25-.38c0-.37,0-.75,0-1.11a8.73,8.73,0,0,0-.06-2.33,9.86,9.86,0,0,0-1.08-3.14,6.26,6.26,0,0,0-5.27-3.46,4.59,4.59,0,0,0-.74,0,11,11,0,0,0-7.57,4.08Z"/><path class="cls-4" d="M167.68,137.34l0,0-.16.27a8.12,8.12,0,0,1-.58.86,4.42,4.42,0,0,0,0-.63,5.53,5.53,0,0,0-.3-1.59,7.07,7.07,0,0,1,1.05,1.07Zm-2.46-.93c.11.86-2-.78-4.32-.49s-3.86,2.4-4,1.54,1.55-2.65,3.84-3,4.34,1,4.45,1.9ZM156.74,141h0a4.26,4.26,0,0,0-1.16.21,5.66,5.66,0,0,1,0-1.54,15.11,15.11,0,0,1,.36-1.6,2.44,2.44,0,0,0,0,.27,5.43,5.43,0,0,0,.81,2.66Zm12.09-2.9a1.11,1.11,0,0,0,0-1.56,11,11,0,0,0-7.68-3.87,6,6,0,0,0-.74,0,6.31,6.31,0,0,0-5.18,3.62,9.94,9.94,0,0,0-1,3.16,8.65,8.65,0,0,0,0,2.33c0,.37.07.74.08,1.12a.4.4,0,0,0,.26.37.3.3,0,0,0,.16,0,.39.39,0,0,0,.28-.13,2.41,2.41,0,0,1,1.77-.77,9.51,9.51,0,0,1,2.36.33l.09,0a11.49,11.49,0,0,0,3,.32,5.35,5.35,0,0,0,2.92-.92,12.17,12.17,0,0,0,2.68-2.48,12.39,12.39,0,0,0,.9-1.3,2.52,2.52,0,0,1,.15-.24Z"/></g></g></g></svg>